<?xml version="1.0" encoding="UTF-8"?>
<svg version="1.1" xmlns="http://www.w3.org/2000/svg" width="500" height="500">
<path d="M0 0 C165 0 330 0 500 0 C500 165 500 330 500 500 C335 500 170 500 0 500 C0 335 0 170 0 0 Z " fill="#000000" transform="translate(0,0)"/>
<path d="M0 0 C2.84990588 1.42495294 5.42569283 3.1277766 8 5 C8.33 3.68 8.66 2.36 9 1 C10.98 1 12.96 1 15 1 C15 12.88 15 24.76 15 37 C13.02 37 11.04 37 9 37 C8.67 36.01 8.34 35.02 8 34 C7.05125 34.66 6.1025 35.32 5.125 36 C0.49911418 38.59797224 -3.81230382 39.07806811 -9 38 C-14.02830597 35.44337821 -17.5764291 32.12287742 -20 27 C-20.43359375 23.44140625 -20.43359375 23.44140625 -20.4375 19.5625 C-20.45683594 18.28503906 -20.47617188 17.00757813 -20.49609375 15.69140625 C-19.7721407 10.30451149 -17.15659228 6.55152291 -12.9375 3.1875 C-8.57287666 -0.06275142 -5.37155419 -0.52834959 0 0 Z " fill="#F4F5F4" transform="translate(131,237)"/>
<path d="M0 0 C2.6875 1.625 2.6875 1.625 4.6875 3.625 C5.0175 2.635 5.3475 1.645 5.6875 0.625 C7.6675 0.625 9.6475 0.625 11.6875 0.625 C11.6875 12.175 11.6875 23.725 11.6875 35.625 C9.7075 35.625 7.7275 35.625 5.6875 35.625 C5.3575 34.635 5.0275 33.645 4.6875 32.625 C3.718125 33.285 2.74875 33.945 1.75 34.625 C-2.60810481 37.0901906 -6.40225429 37.4607865 -11.3125 36.625 C-16.46742795 34.97542306 -19.79263108 31.69824216 -22.43359375 27.03515625 C-24.52900853 21.28906329 -24.28093253 14.51069543 -22.25 8.75 C-17.14767394 0.52044183 -9.59831964 -3.98420815 0 0 Z " fill="#F3F4F3" transform="translate(235.3125,238.375)"/>
<path d="M0 0 C5.08979651 2.81093298 9.02870881 6.89862643 10.875 12.4375 C11.60524091 19.17726447 11.17718379 24.99581889 6.875 30.4375 C2.54229347 34.64436028 -1.61785141 36.8130875 -7.6875 37.125 C-14.61222924 36.71766299 -18.93878581 33.79188451 -23.5625 28.8125 C-27.05615039 23.5021514 -26.81016821 17.58065585 -26.125 11.4375 C-23.99484298 5.7356573 -20.46486214 2.33959899 -15.125 -0.5625 C-9.80670208 -2.33526597 -5.08669816 -2.28462067 0 0 Z " fill="#F1F2F1" transform="translate(345.125,238.5625)"/>
<path d="M0 0 C7.86680541 6.74297607 7.86680541 6.74297607 10.578125 9.69921875 C11.17625 10.34568359 11.774375 10.99214844 12.390625 11.65820312 C13.00421875 12.32787109 13.6178125 12.99753906 14.25 13.6875 C18.75063092 18.54978876 23.28561831 23.3442225 28 28 C31.69455477 31.65057197 35.20472444 35.38157484 38.5625 39.34375 C39.96785838 40.96296726 41.48393656 42.48393656 43 44 C43.33 30.14 43.66 16.28 44 2 C46.31 2 48.62 2 51 2 C51 21.47 51 40.94 51 61 C43.45441596 54.53235654 36.1822971 47.84276308 29.75 40.25 C25.57348357 35.33825329 20.92735365 30.87842975 16.32910156 26.36621094 C15.70100586 25.74649414 15.07291016 25.12677734 14.42578125 24.48828125 C13.58140503 23.66130737 13.58140503 23.66130737 12.7199707 22.81762695 C10.68105942 20.66295066 8.85312278 18.31640348 7 16 C6.67 30.19 6.34 44.38 6 59 C4.02 59 2.04 59 0 59 C0 39.53 0 20.06 0 0 Z " fill="#F3F4F3" transform="translate(259,215)"/>
<path d="M0 0 C2.31 0 4.62 0 7 0 C7.33 7.26 7.66 14.52 8 22 C9.48371094 20.411875 10.96742187 18.82375 12.49609375 17.1875 C13.96019453 15.6530692 15.43213084 14.12656819 16.9050293 12.60058594 C17.91900189 11.54154431 18.92472872 10.47453997 19.92163086 9.39941406 C28.24312216 0.44228214 28.24312216 0.44228214 32.73095703 -0.6875 C35.22265625 -0.6875 35.22265625 -0.6875 39 0 C34.03805145 5.99500997 28.6523376 11.46427037 23.125 16.9375 C22.24585937 17.81212891 21.36671875 18.68675781 20.4609375 19.58789062 C18.3095654 21.72757048 16.15588208 23.86486597 14 26 C18.86310829 32.85182589 24.41487543 38.79914678 30.25390625 44.8203125 C33.95984026 48.68737407 37.21190829 52.42059549 40 57 C36.31801409 57.7243251 34.54507299 58.00264691 31 57 C27.30891924 53.84945408 24.29391954 50.3004179 21.24853516 46.53466797 C19.58265438 44.48700927 17.82416682 42.52787133 16.0625 40.5625 C14.20677337 38.43152205 12.4371275 36.2849998 10.6875 34.0625 C9.16126242 31.91019125 9.16126242 31.91019125 7 31 C7 39.58 7 48.16 7 57 C4.69 57 2.38 57 0 57 C0 38.19 0 19.38 0 0 Z " fill="#EEEFEE" transform="translate(47,217)"/>
<path d="M0 0 C4.43698813 2.47265164 6.47707157 4.93230113 8.875 9.4375 C9.37 14.3875 9.37 14.3875 9.875 19.4375 C0.635 19.4375 -8.605 19.4375 -18.125 19.4375 C-15.86682033 26.00361741 -15.86682033 26.00361741 -11.125 29.4375 C-6.81080741 29.98900503 -2.76954337 30.04074527 0.875 27.4375 C2.24586915 26.14279025 3.58840837 24.81599103 4.875 23.4375 C6.195 24.0975 7.515 24.7575 8.875 25.4375 C7.30453579 30.57720106 4.57959875 32.82514305 0.046875 35.52734375 C-4.16448871 37.29217782 -8.65518953 36.96297844 -13.125 36.4375 C-18.54911127 33.77475447 -21.9693967 30.09538759 -24.375 24.5625 C-26.07515302 17.4785291 -25.29069559 11.01922732 -21.5 4.75 C-15.31305358 -1.27413204 -8.17940988 -3.53828405 0 0 Z " fill="#EBECEB" transform="translate(404.125,238.5625)"/>
<path d="M0 0 C4.29661094 2.18599504 7.45225252 4.35675757 9 9 C5.25 12 5.25 12 3 12 C2.29875 11.175 1.5975 10.35 0.875 9.5 C-2.01233935 6.98927013 -2.50347091 6.58993514 -6.0625 6.4375 C-9.92426607 6.71814485 -9.92426607 6.71814485 -12.5 8.5625 C-14.60020266 11.97532932 -14.63210717 14.06688873 -14 18 C-10.43380684 21.41373509 -6.52496347 23.28234561 -2.0625 25.3125 C8.5744543 30.46222443 8.5744543 30.46222443 11 36 C11.87635783 40.78567582 11.43291925 44.72529333 9.875 49.3125 C6.81154953 53.70344568 2.98021493 56.91568782 -2 59 C-8.79223708 59.97844621 -13.50758567 59.0643866 -19 55 C-22.29144478 51.61959725 -23.73689069 48.5261417 -25 44 C-21.535 43.505 -21.535 43.505 -18 43 C-17.5875 43.928125 -17.175 44.85625 -16.75 45.8125 C-15.00775412 48.98587642 -14.19646106 50.40176947 -11 52 C-5.97698803 52.54796494 -3.05853817 52.01491407 1 49 C3.48076864 46.51923136 3.35091557 45.55781791 3.4375 42.125 C3.47746094 41.26132812 3.51742188 40.39765625 3.55859375 39.5078125 C2.74909676 35.87356727 1.08311506 35.00299019 -2 33 C-5.50114266 31.22511518 -9.05205137 29.60133009 -12.625 27.9765625 C-16.95134405 25.44284712 -19.72671399 22.54657201 -22 18 C-22.38356511 13.39721864 -22.44964438 10.9352603 -20.4375 6.75 C-14.69178545 0.26765538 -8.5065413 -1.64289424 0 0 Z " fill="#F1F2F1" transform="translate(444,216)"/>
<path d="M0 0 C2.26506464 2.26506464 2.97267913 4.04637383 4.1640625 7.0078125 C4.56367188 7.99394531 4.96328125 8.98007813 5.375 9.99609375 C5.7875 11.02863281 6.2 12.06117188 6.625 13.125 C7.04523438 14.16527344 7.46546875 15.20554688 7.8984375 16.27734375 C8.93684717 18.8497677 9.97048792 21.42400511 11 24 C12.62335596 21.56496606 13.75585119 19.45920935 14.91015625 16.8046875 C15.26013672 16.00675781 15.61011719 15.20882812 15.97070312 14.38671875 C16.33099609 13.55785156 16.69128906 12.72898438 17.0625 11.875 C17.78044092 10.22564193 18.50038732 8.57715489 19.22265625 6.9296875 C19.53984619 6.19991699 19.85703613 5.47014648 20.18383789 4.71826172 C21 3 21 3 22 2 C24.33297433 1.95907063 26.66705225 1.95758277 29 2 C27.70531846 6.11168931 26.17220273 9.93457376 24.28515625 13.80859375 C23.76373047 14.88560547 23.24230469 15.96261719 22.70507812 17.07226562 C22.16302734 18.18279297 21.62097656 19.29332031 21.0625 20.4375 C16.33137948 30.12791491 16.33137948 30.12791491 12 40 C9.19945296 38.59972648 9.01367485 37.01173589 7.87109375 34.125 C7.27844727 32.64773438 7.27844727 32.64773438 6.67382812 31.140625 C6.0618457 29.58601563 6.0618457 29.58601563 5.4375 28 C4.625829 25.95748518 3.81213562 23.91577247 2.99609375 21.875 C2.63700928 20.96492188 2.2779248 20.05484375 1.90795898 19.1171875 C1.17859061 17.05486693 1.17859061 17.05486693 0 16 C-3.3 23.92 -6.6 31.84 -10 40 C-13.10562231 36.89437769 -14.58228257 33.99466791 -16.3203125 30.06640625 C-16.62444061 29.39206039 -16.92856873 28.71771454 -17.24191284 28.02293396 C-17.88212728 26.59966934 -18.51903123 25.17491156 -19.15283203 23.7487793 C-20.12145279 21.57047721 -21.10083001 19.39726927 -22.08203125 17.22460938 C-22.70376558 15.83882889 -23.32488024 14.45277018 -23.9453125 13.06640625 C-24.23697296 12.4183754 -24.52863342 11.77034454 -24.82913208 11.10267639 C-26.15658023 8.10629439 -27.36077223 5.22289956 -28 2 C-25.69 2 -23.38 2 -21 2 C-17.7 9.59 -14.4 17.18 -11 25 C-10.28972656 23.27910156 -9.57945312 21.55820312 -8.84765625 19.78515625 C-7.91940104 17.5442169 -6.99100855 15.3033344 -6.0625 13.0625 C-5.59392578 11.92619141 -5.12535156 10.78988281 -4.64257812 9.61914062 C-4.19462891 8.53955078 -3.74667969 7.45996094 -3.28515625 6.34765625 C-2.87144775 5.34742432 -2.45773926 4.34719238 -2.03149414 3.31665039 C-1 1 -1 1 0 0 Z " fill="#F0F1F0" transform="translate(180,236)"/>
<path d="M0 0 C4.35944153 2.22084757 7.16830464 4.42076159 9 9 C9.75913492 13.07172364 9.90952594 16.46124227 7.7578125 20.1015625 C4.80206001 23.67493491 2.71728345 25.68959871 -2.0859375 26.23828125 C-6.08145177 26.36782864 -8.4023508 26.34333039 -11.9375 24.3125 C-15.75123833 20.03649036 -16.55498527 15.91311905 -16.4609375 10.2890625 C-15.64802171 6.25204 -13.03793391 3.64441915 -10 1 C-6.78314421 -0.60842789 -3.4888991 -0.46778535 0 0 Z " fill="#050505" transform="translate(341,243)"/>
<path d="M0 0 C3.27981751 2.06771104 4.84746007 3.77119011 7 7 C7.57848123 11.85323218 7.64024604 16.4634095 5.75 21 C1.61648746 25.72401434 1.61648746 25.72401434 -2.08203125 26.35546875 C-6.39614941 26.62018247 -8.38929684 26.45477895 -11.9375 23.8125 C-15.21015113 19.34979391 -16.56815337 15.71668265 -16.4609375 10.06640625 C-15.59891919 6.20193435 -12.88597483 3.57943346 -10 1 C-6.79632147 -0.60183927 -3.47623006 -0.49374477 0 0 Z " fill="#040404" transform="translate(234,243)"/>
<path d="M0 0 C3.1511899 2.56034179 5.76839019 4.77298258 6.203125 8.953125 C6.30730929 14.05815533 5.99750883 17.65878032 3 22 C-0.4760199 24.97944563 -3.62032157 25.5362791 -8.0703125 25.3515625 C-11.242153 24.77369682 -12.85500693 23.33425716 -15 21 C-17.56896614 16.71838977 -17.7012359 11.85734135 -17 7 C-13.0681121 -0.72335123 -8.09709567 -2.28046545 0 0 Z " fill="#040404" transform="translate(134,244)"/>
<path d="M0 0 C2.31 0 4.62 0 7 0 C7 4.29 7 8.58 7 13 C8.98 13 10.96 13 13 13 C13 14.98 13 16.96 13 19 C11.02 19 9.04 19 7 19 C7 28.9 7 38.8 7 49 C4.69 49 2.38 49 0 49 C0 39.1 0 29.2 0 19 C-0.99 19 -1.98 19 -3 19 C-3 17.02 -3 15.04 -3 13 C-2.01 13 -1.02 13 0 13 C0 8.71 0 4.42 0 0 Z " fill="#E3E4E3" transform="translate(364,225)"/>
<path d="M0 0 C2.31 0 4.62 0 7 0 C7 11.88 7 23.76 7 36 C4.69 36 2.38 36 0 36 C0 24.12 0 12.24 0 0 Z " fill="#DDDEDD" transform="translate(94,238)"/>
<path d="M0 0 C3.73076703 1.30205793 5.07558463 3.4589382 7.16015625 6.75390625 C7.16015625 7.41390625 7.16015625 8.07390625 7.16015625 8.75390625 C0.23015625 8.75390625 -6.69984375 8.75390625 -13.83984375 8.75390625 C-10.88699904 1.37179447 -7.86546605 -1.24744453 0 0 Z " fill="#080808" transform="translate(399.83984375,243.24609375)"/>
<path d="M0 0 C2.5625 0.1875 2.5625 0.1875 4.5625 2.1875 C4.00694444 6.74305556 4.00694444 6.74305556 2.5625 8.1875 C0.125 8.375 0.125 8.375 -2.4375 8.1875 C-3.0975 7.5275 -3.7575 6.8675 -4.4375 6.1875 C-3.71780303 0.28598485 -3.71780303 0.28598485 0 0 Z " fill="#EEEFEE" transform="translate(97.4375,220.8125)"/>
</svg>
